<svg width="26" height="26" viewBox="0 0 26 26" fill="none" xmlns="http://www.w3.org/2000/svg">
<g clip-path="url(#clip0_18_146)">
<path d="M12.9537 5.16693C8.40664 5.16693 4.70679 8.95111 4.70679 13.6018C4.70679 18.2528 8.40664 22.0368 12.9537 22.0368C17.5008 22.0368 21.2007 18.2526 21.2007 13.6018C21.2007 8.95092 17.5008 5.16693 12.9537 5.16693ZM12.9537 21.2637C8.82422 21.2637 5.46683 17.8295 5.46683 13.6062C5.46683 9.38252 8.82436 5.94429 12.9537 5.94429C17.0831 5.94429 20.4407 9.37854 20.4407 13.6018C20.4407 17.8255 17.0831 21.2637 12.9537 21.2637Z" fill="#C689C6"/>
<path d="M12.6874 7.10817C12.7231 7.1447 12.763 7.17336 12.8107 7.19359C12.8544 7.21401 12.9061 7.22207 12.9539 7.22207C13.0533 7.22207 13.1528 7.18142 13.2244 7.10817C13.2601 7.07164 13.2841 7.0308 13.3039 6.98603C13.3239 6.93714 13.3358 6.88431 13.3358 6.83542C13.3358 6.7337 13.296 6.63199 13.2244 6.56286C13.0812 6.42049 12.8266 6.42049 12.6874 6.56286C12.6198 6.63199 12.576 6.7337 12.576 6.83542C12.576 6.88431 12.5839 6.93714 12.6079 6.98603C12.6277 7.0308 12.6515 7.07145 12.6874 7.10817Z" fill="#C689C6"/>
<path d="M12.8107 20.015C12.7629 20.0393 12.7192 20.0639 12.6875 20.1004C12.6199 20.1736 12.5761 20.2712 12.5761 20.3771C12.5761 20.4788 12.6199 20.5805 12.6875 20.6496C12.7591 20.7229 12.8585 20.7676 12.958 20.7676C13.0574 20.7676 13.1569 20.7229 13.2285 20.6496C13.2961 20.5805 13.3399 20.4788 13.3399 20.3771C13.3399 20.2712 13.3001 20.1736 13.2285 20.1004C13.1171 19.9906 12.9499 19.9539 12.8107 20.015Z" fill="#C689C6"/>
<path d="M9.37716 7.46593C9.30958 7.53505 9.26581 7.63677 9.26581 7.74261C9.26581 7.84433 9.30555 7.94605 9.37716 8.01517C9.44878 8.08841 9.54823 8.12906 9.64768 8.12906C9.75116 8.12906 9.84255 8.09254 9.91819 8.01517C9.93413 7.99887 9.95391 7.97864 9.96197 7.95822C9.9779 7.9378 9.98981 7.91757 9.99768 7.89303C10.0096 7.86868 10.0176 7.84414 10.0215 7.81979C10.0294 7.79544 10.0294 7.7709 10.0294 7.74655C10.0294 7.64071 9.98962 7.54311 9.91801 7.46987C9.77497 7.31944 9.52038 7.31944 9.37716 7.46593Z" fill="#C689C6"/>
<path d="M16.5303 19.193C16.4428 19.1034 16.3114 19.0628 16.1882 19.0872C16.1644 19.0913 16.1404 19.0993 16.1166 19.1076C16.0928 19.1197 16.0728 19.1319 16.0528 19.1482C16.0329 19.1604 16.0091 19.1767 15.9972 19.193C15.9614 19.2295 15.9334 19.2704 15.9136 19.3191C15.8937 19.368 15.8858 19.4208 15.8858 19.4697C15.8858 19.5186 15.8937 19.5714 15.9136 19.6162C15.9336 19.6609 15.9614 19.7057 15.9972 19.7383C16.0131 19.7587 16.0329 19.7748 16.0528 19.7872C16.0728 19.7994 16.0926 19.8157 16.1166 19.8237C16.1404 19.8318 16.1644 19.84 16.1882 19.8481C16.212 19.8522 16.236 19.8561 16.2598 19.8561C16.3633 19.8561 16.4587 19.8155 16.5303 19.7381C16.566 19.7016 16.594 19.6607 16.6138 19.616C16.6338 19.5712 16.6457 19.5184 16.6457 19.4695C16.6457 19.4206 16.6338 19.3678 16.6138 19.3189C16.5981 19.2702 16.5702 19.2254 16.5303 19.193Z" fill="#C689C6"/>
<path d="M7.43185 9.89536C7.41189 9.87907 7.39211 9.86689 7.36811 9.85883C7.3443 9.84666 7.32434 9.83842 7.2965 9.83448C7.17324 9.80601 7.04192 9.85078 6.95437 9.94032C6.88276 10.0136 6.84302 10.1153 6.84302 10.217C6.84302 10.3187 6.88276 10.4204 6.95437 10.4937C7.02196 10.5628 7.12141 10.6076 7.22489 10.6076C7.2487 10.6076 7.27269 10.6035 7.2965 10.5995C7.32434 10.5954 7.3443 10.5873 7.36811 10.5752C7.39192 10.5671 7.41188 10.5547 7.43185 10.5386C7.45566 10.5223 7.47562 10.506 7.48753 10.4939C7.55914 10.4206 7.60291 10.3189 7.60291 10.2172C7.60291 10.1155 7.56317 10.0138 7.48753 9.94051C7.47562 9.92777 7.45566 9.91147 7.43185 9.89536Z" fill="#C689C6"/>
<path d="M18.5431 17.3414C18.5869 17.3658 18.6385 17.374 18.6863 17.374C18.7858 17.374 18.8852 17.3334 18.9568 17.2601C19.0244 17.1869 19.0682 17.0893 19.0682 16.9834C19.0682 16.9591 19.0642 16.9346 19.0603 16.9102C19.0563 16.8817 19.0484 16.8613 19.0365 16.837C19.0286 16.8126 19.0165 16.7922 19.0008 16.7718C18.9849 16.7474 18.9689 16.727 18.957 16.7107C18.8497 16.6049 18.6825 16.5723 18.5433 16.6294C18.4955 16.6498 18.4517 16.6742 18.42 16.7107C18.4041 16.7311 18.3843 16.7514 18.3762 16.7718C18.3603 16.7922 18.3484 16.8124 18.3405 16.837C18.3326 16.8613 18.3246 16.8817 18.3206 16.9102C18.3127 16.9346 18.3127 16.9591 18.3127 16.9834C18.3127 17.0893 18.3524 17.1869 18.424 17.2601C18.4517 17.2967 18.4955 17.3251 18.5431 17.3414Z" fill="#C689C6"/>
<path d="M6.60429 13.3295C6.58835 13.309 6.56857 13.2929 6.54861 13.2806C6.52865 13.2684 6.50887 13.2562 6.48487 13.244C6.46106 13.236 6.4411 13.2278 6.41326 13.2197C6.29 13.1953 6.15868 13.2401 6.07113 13.3295C6.03542 13.366 6.00739 13.4068 5.98762 13.4516C5.96765 13.4964 5.95978 13.5492 5.95978 13.5981C5.95978 13.6509 5.96765 13.7039 5.98762 13.7487C6.00758 13.7935 6.03542 13.8383 6.07113 13.8748C6.13871 13.948 6.23817 13.9928 6.34165 13.9928C6.36546 13.9928 6.38945 13.9887 6.41326 13.9847C6.4411 13.9767 6.46106 13.9684 6.48487 13.9604C6.50868 13.9482 6.52864 13.936 6.54861 13.9239C6.57241 13.9076 6.59238 13.8913 6.60428 13.875C6.67589 13.8058 6.71967 13.7041 6.71967 13.5983C6.71967 13.5494 6.70776 13.5007 6.6878 13.4518C6.66784 13.4068 6.64 13.3621 6.60429 13.3295Z" fill="#C689C6"/>
<path d="M19.3031 13.8747C19.3388 13.9154 19.3788 13.9399 19.4264 13.9601C19.4702 13.9806 19.5218 13.9927 19.5696 13.9927C19.6691 13.9927 19.7645 13.9521 19.8401 13.8747C19.8758 13.8382 19.8998 13.7973 19.9196 13.7486C19.9396 13.7039 19.9515 13.651 19.9515 13.6022C19.9515 13.4963 19.9077 13.3987 19.8401 13.3255C19.7328 13.2157 19.5656 13.1831 19.4264 13.2401C19.3786 13.2605 19.3348 13.2889 19.3031 13.3255C19.2872 13.3418 19.2674 13.3661 19.2594 13.3824C19.2434 13.4028 19.2315 13.4272 19.2236 13.4476C19.2117 13.472 19.2037 13.4965 19.1998 13.5209C19.1958 13.5493 19.192 13.5697 19.192 13.5982C19.192 13.6471 19.2039 13.6958 19.2238 13.7447C19.2434 13.7974 19.2713 13.8421 19.3031 13.8747Z" fill="#C689C6"/>
<path d="M7.43185 16.6662C7.41189 16.6499 7.39211 16.6377 7.36811 16.6297C7.3443 16.6175 7.32434 16.6093 7.2965 16.6053C7.17324 16.5769 7.04192 16.6216 6.95437 16.7112C6.88276 16.7844 6.84302 16.8861 6.84302 16.9878C6.84302 17.0367 6.85089 17.0896 6.87086 17.1343C6.89082 17.1832 6.91866 17.2239 6.95437 17.2604C7.02598 17.3295 7.12141 17.3743 7.22489 17.3743C7.2487 17.3743 7.27269 17.3743 7.2965 17.3662C7.32434 17.3621 7.3443 17.3541 7.36811 17.3419C7.39192 17.3338 7.41188 17.3215 7.43185 17.3054C7.45565 17.2932 7.47562 17.2728 7.48752 17.2606C7.52324 17.2199 7.55126 17.1832 7.57104 17.1345C7.591 17.0898 7.60291 17.0369 7.60291 16.988C7.60291 16.8863 7.56316 16.7846 7.48752 16.7114C7.47562 16.6947 7.45566 16.6825 7.43185 16.6662Z" fill="#C689C6"/>
<path d="M18.4198 10.4934C18.4555 10.5299 18.4955 10.5544 18.5431 10.5747C18.5869 10.5951 18.6385 10.6073 18.6863 10.6073C18.7858 10.6073 18.8852 10.5625 18.9568 10.4934C18.9925 10.4527 19.0165 10.4121 19.0363 10.3673C19.0563 10.3225 19.0682 10.2697 19.0682 10.2208C19.0682 10.1719 19.0563 10.1191 19.0363 10.0743C19.0164 10.0254 18.9925 9.98065 18.9568 9.94824C18.8495 9.83846 18.6823 9.8098 18.5431 9.86694C18.4953 9.88736 18.4515 9.91171 18.4198 9.94824C18.3841 9.98477 18.3561 10.0256 18.3363 10.0743C18.3163 10.1191 18.3085 10.1719 18.3085 10.2208C18.3085 10.2697 18.3163 10.3225 18.3363 10.3673C18.3561 10.4119 18.3839 10.4525 18.4198 10.4934Z" fill="#C689C6"/>
<path d="M9.99371 19.3148C9.98584 19.2904 9.97375 19.27 9.958 19.2496C9.94609 19.2292 9.92613 19.2131 9.91422 19.1927C9.77502 19.0503 9.52045 19.0503 9.37723 19.1927C9.30964 19.2659 9.26587 19.3635 9.26587 19.4693C9.26587 19.5711 9.30561 19.6728 9.37723 19.7419C9.39719 19.7623 9.41697 19.7784 9.43693 19.7908C9.4569 19.803 9.48071 19.8193 9.50067 19.8273C9.52448 19.8395 9.54444 19.8436 9.57228 19.8517C9.59609 19.8558 9.62008 19.8597 9.64389 19.8597C9.74334 19.8597 9.83876 19.8191 9.91441 19.7417C9.98602 19.6726 10.0258 19.5709 10.0258 19.4691C10.0258 19.4407 10.0258 19.4203 10.0179 19.3918C10.0137 19.3678 10.0058 19.3391 9.99371 19.3148Z" fill="#C689C6"/>
<path d="M16.053 8.06442C16.0729 8.07659 16.0927 8.08877 16.1167 8.10095C16.1405 8.109 16.1645 8.11724 16.1883 8.12136C16.2121 8.12942 16.2361 8.13354 16.2599 8.13354C16.3634 8.13354 16.4548 8.09289 16.5304 8.01553C16.602 7.9464 16.6458 7.84468 16.6458 7.73885C16.6458 7.71449 16.6418 7.68996 16.6379 7.6656C16.6301 7.63713 16.622 7.61671 16.6141 7.59236C16.6022 7.56801 16.5903 7.54759 16.5784 7.52717C16.5625 7.50282 16.5466 7.48652 16.5306 7.47022C16.4431 7.38068 16.3118 7.34003 16.1885 7.36045C16.1647 7.3685 16.1407 7.37674 16.1169 7.3848C16.0931 7.39698 16.0731 7.40915 16.0531 7.42133C16.0332 7.43763 16.0094 7.45392 15.9975 7.47022C15.9775 7.48652 15.9617 7.50675 15.9497 7.52717C15.9378 7.54759 15.9259 7.56782 15.9139 7.59236C15.9061 7.61671 15.898 7.63713 15.8901 7.6656C15.8861 7.68995 15.8861 7.71449 15.8861 7.73884C15.8861 7.84468 15.9218 7.94228 15.9975 8.01552C16.0132 8.03182 16.037 8.04812 16.053 8.06442Z" fill="#C689C6"/>
<path d="M16.7094 13.2153H14.0759C13.9564 12.8573 13.6859 12.5805 13.3359 12.4585V8.43439C13.3359 8.21877 13.1649 8.04774 12.9579 8.04774C12.7509 8.04774 12.5799 8.22271 12.5799 8.43439V12.4585C12.1104 12.6213 11.7723 13.0689 11.7723 13.602C11.7723 14.2734 12.3055 14.8145 12.9579 14.8145C13.4789 14.8145 13.9167 14.4687 14.0759 13.9886H16.7094C16.9202 13.9886 17.0874 13.8136 17.0874 13.602C17.0913 13.3903 16.9202 13.2153 16.7094 13.2153ZM12.9579 14.0413C12.7152 14.0413 12.5282 13.85 12.5282 13.6018C12.5282 13.3577 12.7192 13.1623 12.9579 13.1623C13.1965 13.1623 13.3876 13.3577 13.3876 13.6018C13.3835 13.8461 13.1925 14.0413 12.9579 14.0413Z" fill="#C689C6"/>
<path d="M24.3397 2.98614L24.7813 2.5345C24.9286 2.38389 24.9286 2.13568 24.7813 1.98526C24.6341 1.83465 24.3954 1.83465 24.2443 1.98526L23.8027 2.43691C23.1344 1.8753 22.3069 1.57016 21.4317 1.57016C20.4291 1.57016 19.4903 1.96897 18.7781 2.69731C18.7065 2.77055 18.6668 2.86815 18.6668 2.96987C18.6668 3.07159 18.7065 3.16918 18.7781 3.24243L20.8947 5.40719L20.3137 6.00534C18.5076 4.1742 16.049 3.01056 13.336 2.91297V2.51022C13.9168 2.33938 14.3464 1.79818 14.3464 1.15116C14.3464 0.37001 13.7219 -0.268951 12.958 -0.268951C12.1902 -0.268951 11.5695 0.369818 11.5695 1.15116C11.5695 1.79818 11.9992 2.33936 12.58 2.51022L12.5801 2.91297C9.8629 3.01057 7.40851 4.17444 5.60242 6.00534L5.02163 5.41132L7.13815 3.24655C7.28541 3.09594 7.28541 2.85185 7.13815 2.69732C6.43007 1.97309 5.48722 1.57017 4.48463 1.57017C3.60935 1.57017 2.78188 1.87532 2.11356 2.43692L1.66795 1.98527C1.52069 1.83466 1.28204 1.83466 1.13095 1.98527C0.983698 2.13588 0.983698 2.37997 1.13095 2.53451L1.57253 2.98615C1.02344 3.66971 0.725098 4.51603 0.725098 5.41127C0.725098 6.4367 1.11503 7.40104 1.82713 8.12527C1.90277 8.20264 1.99819 8.23916 2.09362 8.23916C2.18904 8.23916 2.28849 8.20264 2.3601 8.12527L4.47663 5.9605L5.07734 6.57491C3.4702 8.45472 2.49143 10.9166 2.49143 13.6062C2.49143 16.5562 3.66506 19.2333 5.56272 21.1702L4.5682 23.1478C4.38926 23.4977 4.35739 23.9005 4.47662 24.275C4.59604 24.6492 4.85062 24.9585 5.19273 25.1376C5.39969 25.2474 5.62241 25.3004 5.85318 25.3004C6.28688 25.3004 6.69255 25.105 6.97115 24.7633L8.26017 23.1602C9.67245 23.8885 11.2677 24.2995 12.9507 24.2995C14.6376 24.2995 16.2288 23.8885 17.6413 23.1602L18.9303 24.7633C19.2049 25.1052 19.6146 25.3004 20.0522 25.3004C20.287 25.3004 20.5097 25.2475 20.7126 25.1376C21.4207 24.7633 21.7033 23.868 21.3371 23.1439L20.3426 21.1663C22.2403 19.2295 23.4139 16.552 23.4139 13.6022C23.4139 10.9126 22.4353 8.45516 20.828 6.57482L21.4287 5.96041L23.5452 8.12517C23.6168 8.19842 23.7123 8.23907 23.8117 8.23907C23.9112 8.23907 24.0066 8.19842 24.0782 8.12517C25.4586 6.72137 25.5422 4.49158 24.3407 2.98625L24.3397 2.98614ZM2.11295 7.28699C1.70709 6.75406 1.48439 6.0988 1.48439 5.41131C1.48439 4.59342 1.79465 3.82445 2.36352 3.24654C2.9324 2.66882 3.68038 2.34737 4.48004 2.34737C5.1524 2.34737 5.78885 2.57123 6.31393 2.99027L2.11295 7.28699ZM12.3249 1.15107C12.3249 0.793093 12.6074 0.504055 12.9575 0.504055C13.3075 0.504055 13.5901 0.792911 13.5901 1.15107C13.5901 1.50905 13.3077 1.79809 12.9575 1.79809C12.6073 1.7979 12.3249 1.50492 12.3249 1.15107ZM6.38951 24.271C6.18658 24.5233 5.82063 24.5965 5.54208 24.45C5.20398 24.271 5.07265 23.8438 5.24372 23.502L6.14283 21.7117C6.59228 22.1064 7.07377 22.4643 7.58699 22.7819L6.38951 24.271ZM20.6675 23.5018C20.8426 23.8476 20.7073 24.2749 20.3692 24.4499C20.0868 24.6005 19.7206 24.5231 19.5179 24.2708L18.3205 22.7815C18.8336 22.4681 19.315 22.106 19.7646 21.7114L20.6675 23.5018ZM12.9537 23.5263C7.60295 23.5263 3.25043 19.0749 3.25043 13.6019C3.25043 8.12894 7.6067 3.67751 12.9537 3.67751C18.3007 3.67751 22.657 8.12894 22.657 13.6019C22.657 19.0749 18.3047 23.5263 12.9537 23.5263ZM23.7987 7.28713L19.5975 2.9904C20.1185 2.57528 20.7592 2.3475 21.4314 2.3475C22.231 2.3475 22.9829 2.66484 23.5479 3.24667C24.6261 4.34946 24.7096 6.08675 23.7987 7.28713Z" fill="#C689C6"/>
</g>
<defs>
<clipPath id="clip0_18_146">
<rect width="26" height="25.4222" fill="white"/>
</clipPath>
</defs>
</svg>
