<svg width="114" height="88" viewBox="0 0 114 88" fill="none" xmlns="http://www.w3.org/2000/svg">
<g filter="url(#filter0_dd_4_40)">
<path d="M23 79L5 16.2L94.2 1L109 54.2L23 79Z" fill="white"/>
<path d="M23 79L5 16.2L94.2 1L109 54.2L23 79Z" stroke="#D9D9D9"/>
</g>
<g filter="url(#filter1_d_4_40)">
<path d="M93.3964 5.85161L62.8601 38.6L6.6 21.8L5 16.2L86.1641 2.42052L94.2 1L93.3964 5.85161Z" fill="white"/>
<path d="M5 16.2L6.6 21.8L62.8601 38.6L93.3964 5.85161L94.2 1L86.1641 2.42052M5 16.2L86.1641 2.42052M5 16.2L60.0475 31.3226L86.1641 2.42052" stroke="#D9D9D9"/>
</g>
<defs>
<filter id="filter0_dd_4_40" x="0.365479" y="0.431305" width="113.249" height="87.1879" filterUnits="userSpaceOnUse" color-interpolation-filters="sRGB">
<feFlood flood-opacity="0" result="BackgroundImageFix"/>
<feColorMatrix in="SourceAlpha" type="matrix" values="0 0 0 0 0 0 0 0 0 0 0 0 0 0 0 0 0 0 127 0" result="hardAlpha"/>
<feOffset dy="4"/>
<feGaussianBlur stdDeviation="2"/>
<feComposite in2="hardAlpha" operator="out"/>
<feColorMatrix type="matrix" values="0 0 0 0 0 0 0 0 0 0 0 0 0 0 0 0 0 0 0.25 0"/>
<feBlend mode="normal" in2="BackgroundImageFix" result="effect1_dropShadow_4_40"/>
<feColorMatrix in="SourceAlpha" type="matrix" values="0 0 0 0 0 0 0 0 0 0 0 0 0 0 0 0 0 0 127 0" result="hardAlpha"/>
<feOffset dy="4"/>
<feGaussianBlur stdDeviation="2"/>
<feComposite in2="hardAlpha" operator="out"/>
<feColorMatrix type="matrix" values="0 0 0 0 0 0 0 0 0 0 0 0 0 0 0 0 0 0 0.25 0"/>
<feBlend mode="normal" in2="effect1_dropShadow_4_40" result="effect2_dropShadow_4_40"/>
<feBlend mode="normal" in="SourceGraphic" in2="effect2_dropShadow_4_40" result="shape"/>
</filter>
<filter id="filter1_d_4_40" x="0.365852" y="0.384644" width="98.4429" height="46.7832" filterUnits="userSpaceOnUse" color-interpolation-filters="sRGB">
<feFlood flood-opacity="0" result="BackgroundImageFix"/>
<feColorMatrix in="SourceAlpha" type="matrix" values="0 0 0 0 0 0 0 0 0 0 0 0 0 0 0 0 0 0 127 0" result="hardAlpha"/>
<feOffset dy="4"/>
<feGaussianBlur stdDeviation="2"/>
<feComposite in2="hardAlpha" operator="out"/>
<feColorMatrix type="matrix" values="0 0 0 0 0 0 0 0 0 0 0 0 0 0 0 0 0 0 0.25 0"/>
<feBlend mode="normal" in2="BackgroundImageFix" result="effect1_dropShadow_4_40"/>
<feBlend mode="normal" in="SourceGraphic" in2="effect1_dropShadow_4_40" result="shape"/>
</filter>
</defs>
</svg>
