<svg width="19" height="22" viewBox="0 0 19 22" fill="none" xmlns="http://www.w3.org/2000/svg">
<path fill-rule="evenodd" clip-rule="evenodd" d="M16.2461 15.7267C16.7137 15.9781 17.0902 16.252 17.3454 16.5554C17.5258 16.7696 17.6426 16.9903 17.6426 17.2288C17.6426 17.4616 17.5313 17.678 17.3583 17.8873C17.1134 18.1835 16.7517 18.4533 16.3031 18.7002C14.7689 19.5438 12.2902 20.0763 9.49989 20.0763C6.7096 20.0763 4.23068 19.5438 2.69672 18.7002C2.24809 18.4533 1.88639 18.1835 1.64145 17.8873C1.46848 17.678 1.35715 17.4616 1.35715 17.2288C1.35715 16.9903 1.47393 16.7696 1.65433 16.5554C1.90955 16.252 2.2861 15.9781 2.75369 15.7267C3.08692 15.5481 3.21915 15.1188 3.04814 14.7685C2.8779 14.419 2.46864 14.2802 2.13479 14.4596C0.738247 15.2092 0 16.2193 0 17.2288C0 18.0125 0.42273 18.7842 1.25943 19.4356C2.80591 20.6386 5.91249 21.5 9.5 21.5C13.0875 21.5 16.1942 20.6386 17.7406 19.4356C18.5773 18.7842 19 18.0125 19 17.2288C19 16.2193 18.2618 15.2092 16.8652 14.4596C16.5314 14.2802 16.1221 14.419 15.9519 14.7685C15.7808 15.1188 15.9129 15.5481 16.2461 15.7267ZM9.49992 0.5C5.8641 0.5 2.91235 3.59664 2.91235 7.41084C2.91235 9.15843 3.88748 11.3759 5.09603 13.3926C6.83108 16.2871 8.99918 18.7768 8.99918 18.7768C9.12732 18.9247 9.30923 19.0088 9.49992 19.0088C9.69062 19.0088 9.87253 18.9247 10.0007 18.7768C10.0007 18.7768 12.1688 16.2873 13.9038 13.3926C15.1124 11.3758 16.0875 9.15839 16.0875 7.41084C16.0875 3.5966 13.1357 0.5 9.49992 0.5ZM9.49992 1.92374C12.3866 1.92374 14.7304 4.38254 14.7304 7.41084C14.7304 8.94421 13.8149 10.8655 12.7543 12.6352C11.5892 14.58 10.2198 16.3355 9.49988 17.2172C8.77998 16.3353 7.41054 14.5798 6.24546 12.6352C5.18487 10.8653 4.26942 8.94409 4.26942 7.41084C4.26942 4.38254 6.61328 1.92374 9.49992 1.92374ZM9.49992 3.63223C7.80683 3.63223 6.4327 5.07379 6.4327 6.84997C6.4327 8.62599 7.80683 10.0675 9.49992 10.0675C11.193 10.0675 12.5671 8.62599 12.5671 6.84997C12.5671 5.07379 11.193 3.63223 9.49992 3.63223ZM9.49992 5.05597C10.4439 5.05597 11.21 5.8597 11.21 6.84997C11.21 7.84008 10.4439 8.6438 9.49992 8.6438C8.55597 8.6438 7.78985 7.84008 7.78985 6.84997C7.78985 5.8597 8.55597 5.05597 9.49992 5.05597Z" fill="#C689C6"/>
</svg>
