<svg width="19" height="15" viewBox="0 0 19 15" fill="none" xmlns="http://www.w3.org/2000/svg">
<g clip-path="url(#clip0_4_114)">
<path d="M6.01229 5.68796C6.15673 7.19999 9.83889 10.872 11.4273 11.088C11.7161 11.088 11.9327 10.9439 12.0048 10.728L12.5824 8.99999C12.7268 8.49594 13.3766 8.49593 13.8819 8.92797L16.7699 11.808C17.1309 12.168 17.2032 12.672 16.9144 12.96L16.2646 13.608C14.4596 15.408 10.0554 14.04 6.5176 10.512C2.9798 6.98394 1.608 2.66397 3.413 0.791965L4.06278 0.143991C4.35155 -0.143983 4.857 -0.0719678 5.218 0.288032L8.106 3.16803C8.61135 3.67198 8.53923 4.31995 8.106 4.46398L6.37323 5.11196C6.15657 5.18398 5.94 5.39993 6.01223 5.6879L6.01229 5.68796Z" fill="#C689C6"/>
</g>
<defs>
<clipPath id="clip0_4_114">
<rect width="18.05" height="15" fill="white" transform="translate(0.813889)"/>
</clipPath>
</defs>
</svg>
