<svg width="19" height="18" viewBox="0 0 19 18" fill="none" xmlns="http://www.w3.org/2000/svg">
<g clip-path="url(#clip0_4_42)">
<path d="M11.8354 13.1138H11.8348C10.1531 13.1128 8.22445 12.2353 6.54332 10.7063C6.5405 10.7037 6.53768 10.701 6.53486 10.6984C4.89941 9.12693 3.96085 7.32386 3.95976 5.75141C3.95976 5.17248 4.27689 4.56371 4.85288 4.0368C5.24913 3.67425 5.83404 3.30847 6.24782 3.30847C6.88539 3.30847 7.0549 3.59031 7.31169 4.01703C7.3742 4.12104 7.44518 4.23881 7.53684 4.38134C7.58761 4.46 7.65765 4.55961 7.73176 4.66523C8.20274 5.33599 8.49921 5.80504 8.33752 6.19729C8.2106 6.50256 7.875 6.75304 7.5505 6.99533C7.43032 7.08497 7.25812 7.21359 7.18182 7.29122C7.24074 7.59752 7.66989 8.24586 8.41837 8.94546C9.16576 9.6442 9.85843 10.0453 10.1869 10.1012C10.2696 10.0299 10.4061 9.87006 10.5013 9.75844C10.7614 9.45375 11.0304 9.13868 11.3581 9.02074C11.4336 8.99349 11.5165 8.97957 11.6039 8.97957C11.9777 8.97957 12.417 9.23138 12.9965 9.58704C13.1093 9.65633 13.216 9.72181 13.3008 9.76956C13.4526 9.85496 13.5788 9.92132 13.6898 9.97976C14.1461 10.2199 14.4476 10.3785 14.4476 10.9744C14.4476 11.3611 14.056 11.9079 13.6681 12.2783C13.1046 12.8165 12.4538 13.1132 11.8353 13.1136L11.8354 13.1138ZM7.15965 10.1223C8.65487 11.4808 10.4024 12.2925 11.8346 12.2935C12.7008 12.2924 13.5248 11.242 13.5702 10.9674C13.5699 10.9113 13.5664 10.8818 13.5638 10.8678C13.519 10.8314 13.3817 10.7592 13.2595 10.6949C13.1489 10.6366 13.0112 10.5642 12.8477 10.4722C12.7482 10.4161 12.6349 10.3466 12.5149 10.2729C12.2876 10.1334 11.8307 9.85306 11.6361 9.80604C11.5161 9.88456 11.3056 10.1311 11.1869 10.2701C10.8859 10.6225 10.626 10.927 10.2595 10.9283C9.36636 10.9274 8.14943 9.85423 7.79766 9.52539C7.4459 9.19653 6.29802 8.0588 6.2971 7.22574C6.2971 6.88077 6.6241 6.63673 7.00282 6.35416C7.15073 6.24386 7.41287 6.04816 7.49731 5.93638C7.44686 5.75415 7.14727 5.32745 6.99812 5.1152C6.91931 5.00299 6.84504 4.89709 6.78535 4.80466C6.68664 4.65129 6.60908 4.52253 6.54687 4.41912C6.47809 4.30486 6.40084 4.17639 6.36199 4.13465C6.3471 4.1323 6.31545 4.12893 6.25544 4.12864C5.96135 4.17083 4.83715 4.94104 4.83715 5.75097C4.83809 7.09043 5.70628 8.7243 7.15951 10.1223L7.15965 10.1223Z" fill="#C689C6"/>
<path d="M0.550944 16.8604C0.440325 16.8604 0.331271 16.8212 0.247916 16.747C0.121318 16.634 0.078539 16.4615 0.139335 16.308L1.5863 12.6513C0.526649 11.1006 0.0304337 9.25635 0.186787 7.43426C0.351619 5.5134 1.2383 3.71164 2.68322 2.36089C4.31165 0.838463 6.49205 0 8.82263 0C11.237 0 13.5184 0.889875 15.2468 2.5059C18.7534 5.78423 18.823 11.0533 15.4019 14.252C13.7737 15.7742 11.5934 16.6126 9.26334 16.6126H9.26318C7.57398 16.6126 5.92911 16.1712 4.49036 15.3341L0.721801 16.8285C0.666648 16.8502 0.608363 16.8608 0.550703 16.8608L0.550944 16.8604ZM4.53229 14.4612C4.6169 14.4612 4.70088 14.4841 4.77374 14.5287C6.11526 15.3549 7.66768 15.7916 9.26338 15.7916C11.3593 15.7916 13.319 15.0387 14.7819 13.6712C17.8609 10.7927 17.7913 6.04373 14.6267 3.08536C13.064 1.62432 11.0028 0.819832 8.82267 0.819832C6.72638 0.819832 4.76623 1.57291 3.30378 2.9405C0.649228 5.42225 0.28526 9.38787 2.43826 12.3699C2.51739 12.4794 2.5351 12.6177 2.48605 12.7416L1.31469 15.7018L4.36093 14.4939C4.41592 14.4721 4.47421 14.4612 4.53218 14.4612L4.53229 14.4612Z" fill="#C689C6"/>
</g>
<defs>
<clipPath id="clip0_4_42">
<rect width="18.05" height="18" fill="white" transform="translate(0.369446)"/>
</clipPath>
</defs>
</svg>
